<?xml version="1.0" encoding="utf-8"?>
<!-- Generator: Adobe Illustrator 24.1.2, SVG Export Plug-In . SVG Version: 6.00 Build 0)  -->
<svg version="1.1" id="Layer_1" xmlns="http://www.w3.org/2000/svg" xmlns:xlink="http://www.w3.org/1999/xlink" x="0px" y="0px"
	 width="34.6px" height="34.4px" viewBox="0 0 34.6 34.4" enable-background="new 0 0 34.6 34.4" xml:space="preserve">
<path id="Google" fill-rule="evenodd" clip-rule="evenodd" fill="#FFFFFF" d="M22.1,0H11.9C6.7,0,2.4,3.8,2.4,8
	c-0.2,4.1,2.9,7.5,6.9,7.6c0.2,0,0.5,0,0.7,0c0.3,0,0.6,0,1,0c-0.3,0.6-0.5,1.3-0.6,1.9c0.1,1.1,0.6,2,1.5,2.7c-0.6,0-1.2,0-1.9,0
	c-5.9,0-10.1,4.1-10.1,8c0,3.8,5,6.3,10.9,6.3c6.7,0,10.9-3.8,10.9-7.6c0-3.1-0.6-4.6-4-7.1c-1.3-0.7-2.4-1.8-3-3.1
	c0.1-1.3,0.8-2.5,2-3c1.8-1.2,2.9-3.2,3-5.4c0.2-2.3-1-4.5-2.9-5.8h2.7L22.1,0z M18.6,26.1c0.1,0.3,0.2,0.7,0.2,1.1
	c0,3.1-2,5.5-7.7,5.5C7,32.7,4,30.1,4,27c0-3,3.5-5.7,7.6-5.6c0.9,0,1.8,0.2,2.7,0.4C16.4,23.4,18.2,24.4,18.6,26.1z M12.1,14
	c-3.2-0.4-5.6-3-5.8-6.2c-0.5-3.6,1.4-6.3,4.1-6.3c2.8,0.1,5.1,3,5.6,6.7S14.8,14.1,12.1,14L12.1,14z M29.9,5.1V0.5h-2.4v4.7h-4.7
	v2.4h4.7v4.6h2.4V7.5h4.7V5.1H29.9z"/>
</svg>
