<?xml version="1.0" encoding="utf-8"?>
<!-- Generator: Adobe Illustrator 24.1.2, SVG Export Plug-In . SVG Version: 6.00 Build 0)  -->
<svg version="1.1" id="Layer_1" xmlns="http://www.w3.org/2000/svg" xmlns:xlink="http://www.w3.org/1999/xlink" x="0px" y="0px"
	 width="29.3px" height="29.1px" viewBox="0 0 29.3 29.1" style="enable-background:new 0 0 29.3 29.1;" xml:space="preserve">
<style type="text/css">
	.st0{fill-rule:evenodd;clip-rule:evenodd;fill:#FFFFFF;}
</style>
<path id="Google" class="st0" d="M18.7,0h-8.6c-4.4,0-8,3.2-8,6.7c-0.2,3.5,2.4,6.3,5.8,6.4c0.2,0,0.4,0,0.6,0c0.3,0,0.5,0,0.8,0
	c-0.3,0.5-0.4,1.1-0.5,1.6c0.1,0.9,0.5,1.7,1.3,2.3c-0.5,0-1,0-1.6,0c-5,0-8.5,3.5-8.5,6.7c0,3.2,4.2,5.3,9.2,5.3
	c5.6,0,9.2-3.2,9.2-6.4c0-2.6-0.5-3.9-3.4-6c-1.1-0.6-2-1.5-2.5-2.6c0.1-1.1,0.7-2.1,1.7-2.5c1.5-1,2.4-2.7,2.5-4.6
	c0.2-1.9-0.8-3.8-2.4-4.9h2.3L18.7,0z M15.8,22c0.1,0.3,0.2,0.6,0.2,0.9c0,2.6-1.7,4.6-6.5,4.6c-3.5,0-6-2.2-6-4.8
	c0-2.5,3-4.8,6.4-4.7c0.8,0,1.5,0.2,2.3,0.3C13.9,19.7,15.4,20.6,15.8,22z M10.3,11.8c-2.7-0.3-4.7-2.5-4.9-5.2
	C5,3.5,6.6,1.3,8.9,1.3c2.4,0.1,4.3,2.5,4.7,5.6C14,10,12.6,11.9,10.3,11.8L10.3,11.8z M25.3,4.3V0.4h-2v4h-4v2h4v3.9h2v-4h4v-2
	H25.3z"/>
</svg>
