<?xml version="1.0" encoding="utf-8"?>
<!-- Generator: Adobe Illustrator 24.1.2, SVG Export Plug-In . SVG Version: 6.00 Build 0)  -->
<svg version="1.1" id="Layer_1" xmlns="http://www.w3.org/2000/svg" xmlns:xlink="http://www.w3.org/1999/xlink" x="0px" y="0px"
	 width="34.7px" height="28.1px" viewBox="0 0 34.7 28.1" enable-background="new 0 0 34.7 28.1" xml:space="preserve">
<path id="Tweter" fill-rule="evenodd" clip-rule="evenodd" fill="#FFFFFF" d="M0,24.9c9.5,6,21.9,3.3,28-6.2c2-3.3,3.2-7,3.2-10.8
	c0-0.3,0-0.7,0-0.9c1.4-1,2.6-2.3,3.6-3.7c-1.3,0.6-2.7,1-4.1,1.1c1.5-0.9,2.6-2.3,3.1-3.9c-1.4,0.8-2.9,1.4-4.5,1.7
	c-2.8-2.9-7.3-3-10.2-0.3c-1.4,1.3-2.2,3.2-2.2,5.1c0,0.6,0.1,1.1,0.2,1.6C11.3,8.4,5.9,5.7,2.4,1.3c-1.9,3.3-0.9,7.4,2.2,9.5
	c-1.1,0-2.2-0.3-3.3-0.9v0.1c0,3.3,2.4,6.3,5.7,6.9c-0.6,0.2-1.2,0.3-1.8,0.3c-0.5,0-0.9-0.1-1.3-0.2c0.9,2.9,3.6,4.9,6.7,4.9
	C7.5,24.2,3.7,25.3,0,24.9z"/>
</svg>
