<?xml version="1.0" encoding="utf-8"?>
<!-- Generator: Adobe Illustrator 24.1.2, SVG Export Plug-In . SVG Version: 6.00 Build 0)  -->
<svg version="1.1" id="Layer_1" xmlns="http://www.w3.org/2000/svg" xmlns:xlink="http://www.w3.org/1999/xlink" x="0px" y="0px"
	 width="29.3px" height="23.7px" viewBox="0 0 29.3 23.7" style="enable-background:new 0 0 29.3 23.7;" xml:space="preserve">
<style type="text/css">
	.st0{fill-rule:evenodd;clip-rule:evenodd;fill:#FFFFFF;}
</style>
<path id="Tweter" class="st0" d="M0,21c8,5.1,18.5,2.8,23.6-5.2c1.7-2.8,2.7-5.9,2.7-9.1c0-0.3,0-0.6,0-0.8c1.2-0.8,2.2-1.9,3-3.1
	c-1.1,0.5-2.3,0.8-3.5,0.9c1.3-0.8,2.2-1.9,2.6-3.3c-1.2,0.7-2.4,1.2-3.8,1.4c-2.4-2.4-6.2-2.5-8.6-0.3c-1.2,1.1-1.9,2.7-1.9,4.3
	c0,0.5,0.1,0.9,0.2,1.3C9.5,7.1,5,4.9,2,1.1c-1.6,2.8-0.8,6.2,1.9,8C3,9.2,2,8.9,1.1,8.4v0.1c0,2.8,2,5.3,4.8,5.8
	c-0.5,0.2-1,0.3-1.5,0.3c-0.4,0-0.8-0.1-1.1-0.2c0.8,2.4,3,4.1,5.6,4.1C6.3,20.5,3.1,21.4,0,21z"/>
</svg>
